HIERARCHY
ROOT newVegas:Hips
{
	OFFSET 0.000000 96.330055 9.825774
	CHANNELS 6 Xposition Yposition Zposition Xrotation Yrotation Zrotation
	JOINT newVegas:Pelvis
	{
		OFFSET 0.000000 0.000000 0.000000
		CHANNELS 3 Xrotation Yrotation Zrotation
		JOINT newVegas:LeftUpLeg
		{
			OFFSET 18.735231 -5.666687 -4.541196
			CHANNELS 3 Xrotation Yrotation Zrotation
			JOINT newVegas:LeftLeg
			{
				OFFSET 2.165257 -31.864662 0.493051
				CHANNELS 3 Xrotation Yrotation Zrotation
				JOINT newVegas:LeftFoot
				{
					OFFSET 2.207560 -31.861769 -4.336291
					CHANNELS 3 Xrotation Yrotation Zrotation
					JOINT newVegas:LeftToeBase
					{
						OFFSET 0.942982 -26.721954 15.023476
						CHANNELS 3 Xrotation Yrotation Zrotation
						End Site
						{
							OFFSET 0.000000 30.670130 0.000000
						}
					}
				}
				JOINT newVegas:Left_PantLeg
				{
					OFFSET 1.281483 -8.977982 -1.108870
					CHANNELS 3 Xrotation Yrotation Zrotation
					End Site
					{
						OFFSET 0.000000 20.683853 0.000000
					}
				}
			}
		}
		JOINT newVegas:RightUpLeg
		{
			OFFSET -18.735231 -5.666687 -4.541196
			CHANNELS 3 Xrotation Yrotation Zrotation
			JOINT newVegas:RightLeg
			{
				OFFSET -2.167511 -31.864510 0.493069
				CHANNELS 3 Xrotation Yrotation Zrotation
				JOINT newVegas:RightFoot
				{
					OFFSET -2.205305 -31.861921 -4.336310
					CHANNELS 3 Xrotation Yrotation Zrotation
					JOINT newVegas:RightToeBase
					{
						OFFSET -0.942982 -26.721954 15.023476
						CHANNELS 3 Xrotation Yrotation Zrotation
						End Site
						{
							OFFSET 0.000000 30.670130 0.000000
						}
					}
				}
				JOINT newVegas:Right_PantLeg
				{
					OFFSET -1.279257 -8.978161 -1.108887
					CHANNELS 3 Xrotation Yrotation Zrotation
					End Site
					{
						OFFSET 0.000000 20.683781 0.000000
					}
				}
			}
		}
	}
	JOINT newVegas:Spine
	{
		OFFSET 0.000000 10.200043 -0.299546
		CHANNELS 3 Xrotation Yrotation Zrotation
		JOINT newVegas:Spine1
		{
			OFFSET 0.000000 11.900047 -1.516603
			CHANNELS 3 Xrotation Yrotation Zrotation
			JOINT newVegas:Spine2
			{
				OFFSET 0.000000 13.600052 -2.842519
				CHANNELS 3 Xrotation Yrotation Zrotation
				JOINT newVegas:Neck
				{
					OFFSET 0.000000 9.624100 -2.890091
					CHANNELS 3 Xrotation Yrotation Zrotation
					JOINT newVegas:Head
					{
						OFFSET 0.000000 14.068771 -1.351861
						CHANNELS 3 Xrotation Yrotation Zrotation
						JOINT newVegas:Hair_Back
						{
							OFFSET 0.000000 3.231888 -17.524775
							CHANNELS 3 Xrotation Yrotation Zrotation
							End Site
							{
								OFFSET 0.000000 19.849899 0.000000
							}
						}
						JOINT newVegas:Hair_Front
						{
							OFFSET 0.000000 31.260452 4.573765
							CHANNELS 3 Xrotation Yrotation Zrotation
							JOINT newVegas:Hair_Front1
							{
								OFFSET -0.000000 2.284073 11.993284
								CHANNELS 3 Xrotation Yrotation Zrotation
								JOINT newVegas:Hair_Front2
								{
									OFFSET -0.000000 2.284073 11.993282
									CHANNELS 3 Xrotation Yrotation Zrotation
									End Site
									{
										OFFSET 0.000000 12.208847 0.000000
									}
								}
							}
						}
						JOINT newVegas:Jowel
						{
							OFFSET 0.000000 -7.458237 6.864121
							CHANNELS 3 Xrotation Yrotation Zrotation
							End Site
							{
								OFFSET 0.000000 19.849899 0.000000
							}
						}
					}
				}
				JOINT newVegas:LeftShoulder
				{
					OFFSET 15.263037 10.923431 -0.547705
					CHANNELS 3 Xrotation Yrotation Zrotation
					JOINT newVegas:LeftArm
					{
						OFFSET 25.438639 -2.830658 -13.032501
						CHANNELS 3 Xrotation Yrotation Zrotation
						JOINT newVegas:LeftForeArm
						{
							OFFSET 29.593842 0.000000 -4.673203
							CHANNELS 3 Xrotation Yrotation Zrotation
							JOINT newVegas:LeftHand
							{
								OFFSET 27.832886 0.000000 0.954267
								CHANNELS 3 Xrotation Yrotation Zrotation
								JOINT newVegas:LeftHandThumb1
								{
									OFFSET 4.767456 -2.676666 6.397403
									CHANNELS 3 Xrotation Yrotation Zrotation
									JOINT newVegas:LeftHandThumb2
									{
										OFFSET 6.625809 -0.223526 2.471421
										CHANNELS 3 Xrotation Yrotation Zrotation
										JOINT newVegas:LeftHandThumb3
										{
											OFFSET 6.481201 0.059357 1.536795
											CHANNELS 3 Xrotation Yrotation Zrotation
											End Site
											{
												OFFSET 0.000000 6.661179 0.000000
											}
										}
									}
								}
								JOINT newVegas:LeftHandIndex1
								{
									OFFSET 18.761932 0.178406 4.531118
									CHANNELS 3 Xrotation Yrotation Zrotation
									JOINT newVegas:LeftHandIndex2
									{
										OFFSET 3.171219 -0.350479 0.097670
										CHANNELS 3 Xrotation Yrotation Zrotation
										JOINT newVegas:LeftHandIndex3
										{
											OFFSET 3.807625 -0.034592 0.457391
											CHANNELS 3 Xrotation Yrotation Zrotation
											End Site
											{
												OFFSET 0.000000 3.835159 0.000000
											}
										}
									}
								}
								JOINT newVegas:LeftHandMiddle1
								{
									OFFSET 18.461426 0.243439 -0.695649
									CHANNELS 3 Xrotation Yrotation Zrotation
									JOINT newVegas:LeftHandMiddle2
									{
										OFFSET 3.308960 -0.304459 -0.112251
										CHANNELS 3 Xrotation Yrotation Zrotation
										JOINT newVegas:LeftHandMiddle3
										{
											OFFSET 4.584320 0.057678 -0.330443
											CHANNELS 3 Xrotation Yrotation Zrotation
											End Site
											{
												OFFSET 0.000000 4.596573 0.000000
											}
										}
									}
								}
								JOINT newVegas:LeftHandRing1
								{
									OFFSET 17.563904 -0.015564 -4.860666
									CHANNELS 3 Xrotation Yrotation Zrotation
									JOINT newVegas:LeftHandRing2
									{
										OFFSET 2.582436 -0.710159 -0.544994
										CHANNELS 3 Xrotation Yrotation Zrotation
										JOINT newVegas:LeftHandRing3
										{
											OFFSET 3.050346 0.119141 -0.884829
											CHANNELS 3 Xrotation Yrotation Zrotation
											End Site
											{
												OFFSET 0.000000 3.178314 0.000000
											}
										}
									}
								}
								JOINT newVegas:LeftHandPinky1
								{
									OFFSET 15.713013 -1.058273 -8.049927
									CHANNELS 3 Xrotation Yrotation Zrotation
									JOINT newVegas:LeftHandPinky2
									{
										OFFSET 2.262558 -0.308899 -1.109793
										CHANNELS 3 Xrotation Yrotation Zrotation
										JOINT newVegas:LeftHandPinky3
										{
											OFFSET 2.240669 -0.150864 -1.296448
											CHANNELS 3 Xrotation Yrotation Zrotation
											End Site
											{
												OFFSET 0.000000 2.593094 0.000000
											}
										}
									}
								}
							}
							JOINT newVegas:Left_Sleeve
							{
								OFFSET 0.247482 -0.649780 0.586459
								CHANNELS 3 Xrotation Yrotation Zrotation
								End Site
								{
									OFFSET 0.000000 15.991226 0.000000
								}
							}
							JOINT newVegas:Left_CapeC
							{
								OFFSET 15.944374 -8.608810 -6.393338
								CHANNELS 3 Xrotation Yrotation Zrotation
								JOINT newVegas:Left_CapeC1
								{
									OFFSET 0.000000 -8.688515 0.000000
									CHANNELS 3 Xrotation Yrotation Zrotation
									End Site
									{
										OFFSET 0.000000 8.688515 0.000000
									}
								}
							}
						}
						JOINT newVegas:Left_CapeB
						{
							OFFSET 24.694458 -8.608810 -11.066542
							CHANNELS 3 Xrotation Yrotation Zrotation
							JOINT newVegas:Left_CapeB1
							{
								OFFSET 0.000008 -8.688515 0.000000
								CHANNELS 3 Xrotation Yrotation Zrotation
								End Site
								{
									OFFSET 0.000000 8.688515 0.000000
								}
							}
						}
						JOINT newVegas:Left_CapeA
						{
							OFFSET 3.431450 -8.608810 -11.066542
							CHANNELS 3 Xrotation Yrotation Zrotation
							JOINT newVegas:Left_CapeA1
							{
								OFFSET 0.000000 -8.688515 0.000000
								CHANNELS 3 Xrotation Yrotation Zrotation
								End Site
								{
									OFFSET 0.000000 8.688515 0.000000
								}
							}
						}
					}
				}
				JOINT newVegas:RightShoulder
				{
					OFFSET -15.263037 10.923431 -0.547705
					CHANNELS 3 Xrotation Yrotation Zrotation
					JOINT newVegas:RightArm
					{
						OFFSET -25.438639 -2.830658 -13.032501
						CHANNELS 3 Xrotation Yrotation Zrotation
						JOINT newVegas:RightForeArm
						{
							OFFSET -29.593842 0.000000 -4.673203
							CHANNELS 3 Xrotation Yrotation Zrotation
							JOINT newVegas:RightHand
							{
								OFFSET -27.832886 0.000000 0.954267
								CHANNELS 3 Xrotation Yrotation Zrotation
								JOINT newVegas:RightHandThumb1
								{
									OFFSET -4.767456 -2.676666 6.397403
									CHANNELS 3 Xrotation Yrotation Zrotation
									JOINT newVegas:RightHandThumb2
									{
										OFFSET -6.625809 -0.223526 2.471421
										CHANNELS 3 Xrotation Yrotation Zrotation
										JOINT newVegas:RightHandThumb3
										{
											OFFSET -6.481201 0.059357 1.536795
											CHANNELS 3 Xrotation Yrotation Zrotation
											End Site
											{
												OFFSET 0.000000 6.661179 0.000000
											}
										}
									}
								}
								JOINT newVegas:RightHandIndex1
								{
									OFFSET -18.761932 0.178406 4.531118
									CHANNELS 3 Xrotation Yrotation Zrotation
									JOINT newVegas:RightHandIndex2
									{
										OFFSET -3.171219 -0.350479 0.097670
										CHANNELS 3 Xrotation Yrotation Zrotation
										JOINT newVegas:RightHandIndex3
										{
											OFFSET -3.807625 -0.034592 0.457391
											CHANNELS 3 Xrotation Yrotation Zrotation
											End Site
											{
												OFFSET 0.000000 3.835159 0.000000
											}
										}
									}
								}
								JOINT newVegas:RightHandMiddle1
								{
									OFFSET -18.461426 0.243439 -0.695648
									CHANNELS 3 Xrotation Yrotation Zrotation
									JOINT newVegas:RightHandMiddle2
									{
										OFFSET -3.308960 -0.304459 -0.112251
										CHANNELS 3 Xrotation Yrotation Zrotation
										JOINT newVegas:RightHandMiddle3
										{
											OFFSET -4.584320 0.057678 -0.330443
											CHANNELS 3 Xrotation Yrotation Zrotation
											End Site
											{
												OFFSET 0.000000 4.596573 0.000000
											}
										}
									}
								}
								JOINT newVegas:RightHandRing1
								{
									OFFSET -17.563904 -0.015564 -4.860666
									CHANNELS 3 Xrotation Yrotation Zrotation
									JOINT newVegas:RightHandRing2
									{
										OFFSET -2.582436 -0.710159 -0.544992
										CHANNELS 3 Xrotation Yrotation Zrotation
										JOINT newVegas:RightHandRing3
										{
											OFFSET -3.050346 0.119141 -0.884830
											CHANNELS 3 Xrotation Yrotation Zrotation
											End Site
											{
												OFFSET 0.000000 3.178329 0.000000
											}
										}
									}
								}
								JOINT newVegas:RightHandPinky1
								{
									OFFSET -15.713013 -1.058273 -8.049929
									CHANNELS 3 Xrotation Yrotation Zrotation
									JOINT newVegas:RightHandPinky2
									{
										OFFSET -2.262558 -0.308899 -1.109791
										CHANNELS 3 Xrotation Yrotation Zrotation
										JOINT newVegas:RightHandPinky3
										{
											OFFSET -2.240669 -0.150864 -1.296448
											CHANNELS 3 Xrotation Yrotation Zrotation
											End Site
											{
												OFFSET 0.000000 2.593094 0.000000
											}
										}
									}
								}
							}
							JOINT newVegas:Right_CapeC
							{
								OFFSET -15.944374 -8.608810 -6.393338
								CHANNELS 3 Xrotation Yrotation Zrotation
								JOINT newVegas:Right_CapeC1
								{
									OFFSET 0.000000 -8.688515 0.000000
									CHANNELS 3 Xrotation Yrotation Zrotation
									End Site
									{
										OFFSET 0.000000 8.688515 0.000000
									}
								}
							}
							JOINT newVegas:Right_Sleeve
							{
								OFFSET -0.247482 -0.649963 0.586505
								CHANNELS 3 Xrotation Yrotation Zrotation
								End Site
								{
									OFFSET 0.000000 15.991287 0.000000
								}
							}
						}
						JOINT newVegas:Right_CapeA
						{
							OFFSET -3.431450 -8.608810 -11.066542
							CHANNELS 3 Xrotation Yrotation Zrotation
							JOINT newVegas:Right_CapeA1
							{
								OFFSET 0.000000 -8.688515 0.000000
								CHANNELS 3 Xrotation Yrotation Zrotation
								End Site
								{
									OFFSET 0.000000 8.688515 0.000000
								}
							}
						}
						JOINT newVegas:Right_CapeB
						{
							OFFSET -24.694321 -8.608810 -11.066542
							CHANNELS 3 Xrotation Yrotation Zrotation
							JOINT newVegas:Right_CapeB1
							{
								OFFSET -0.000015 -8.688515 0.000002
								CHANNELS 3 Xrotation Yrotation Zrotation
								End Site
								{
									OFFSET 0.000000 8.688515 0.000000
								}
							}
						}
					}
				}
				JOINT newVegas:Left_Collar
				{
					OFFSET 18.625118 8.655487 8.828113
					CHANNELS 3 Xrotation Yrotation Zrotation
					JOINT newVegas:Left_Collar1
					{
						OFFSET 14.783401 10.540359 -1.259481
						CHANNELS 3 Xrotation Yrotation Zrotation
						End Site
						{
							OFFSET 0.000000 18.199844 0.000000
						}
					}
				}
				JOINT newVegas:Collar_Back
				{
					OFFSET 0.000000 15.630692 -20.132616
					CHANNELS 3 Xrotation Yrotation Zrotation
					End Site
					{
						OFFSET 0.000000 22.523010 0.000000
					}
				}
				JOINT newVegas:Left_Peck
				{
					OFFSET 17.239555 -5.132629 25.482586
					CHANNELS 3 Xrotation Yrotation Zrotation
					End Site
					{
						OFFSET 0.000000 22.523026 0.000000
					}
				}
				JOINT newVegas:Right_Peck
				{
					OFFSET -17.239599 -5.132195 25.482594
					CHANNELS 3 Xrotation Yrotation Zrotation
					End Site
					{
						OFFSET 0.000000 22.523018 0.000000
					}
				}
				JOINT newVegas:Right_Collar
				{
					OFFSET -18.625099 8.655807 8.828094
					CHANNELS 3 Xrotation Yrotation Zrotation
					JOINT newVegas:Right_Collar1
					{
						OFFSET -14.783405 10.539993 -1.259501
						CHANNELS 3 Xrotation Yrotation Zrotation
						End Site
						{
							OFFSET 0.000000 18.199646 0.000000
						}
					}
				}
			}
		}
		JOINT newVegas:Belly
		{
			OFFSET 0.000000 -6.540390 9.014252
			CHANNELS 3 Xrotation Yrotation Zrotation
			End Site
			{
				OFFSET 0.000000 11.566666 0.000000
			}
		}
	}
	JOINT newVegas:ElvisFacialAnim_Joint
	{
		OFFSET 1.000000 -95.330055 -8.825774
		CHANNELS 3 Xrotation Yrotation Zrotation
		End Site
		{
			OFFSET 0.000000 35.315800 0.000000
		}
	}
}
MOTION
Frames: 4
Frame Time: 0.016667
-6.396248 86.569489 1.040885 -16.016648 -38.373157 -7.310480 -0.000000 -0.000003 -0.000000 -33.870560 -0.414639 11.955453 41.391896 -9.701991 0.541271 18.392021 0.190595 -13.071088 0.000000 -0.000000 -0.000001 -0.000000 -0.000001 0.000000 11.486968 -18.677318 -14.167259 40.211390 -7.520484 0.539819 -34.517474 -5.341852 15.941093 -0.000000 -0.000002 0.000000 0.000001 -0.000001 -0.000000 5.995575 1.626394 -0.377753 12.035804 3.214025 -1.555560 12.035809 3.214021 -1.555560 0.185579 0.579169 1.172549 0.185591 0.579164 1.172551 0.000000 0.000001 -0.000000 0.185588 0.579196 1.172543 0.185574 0.579139 1.172552 -0.000001 -0.000001 0.000000 0.000000 0.000001 -0.000000 -0.675791 6.367327 14.435349 -28.434540 -46.036756 1.823646 11.931249 -17.526643 -10.516149 4.385031 -10.354095 16.824890 8.502644 -14.418811 -31.970145 0.474361 0.323926 -1.757304 -0.000000 0.000000 -0.000000 -5.892387 -8.407023 -37.128119 0.714259 -4.961929 -58.526928 0.000000 -0.000000 -0.000001 -4.876079 -5.565272 -42.703839 -7.631517 -7.634175 -53.152488 -0.000001 0.000000 0.000000 -9.581043 -3.433299 -37.920012 -19.219141 0.070284 -65.265961 0.000001 0.000000 0.000000 -15.475112 -3.565910 -41.046022 -30.277918 1.723784 -56.659045 -0.000000 0.000001 0.000000 -0.000001 -0.000000 -0.000000 -0.000001 -0.000000 -0.000000 -0.000001 -0.000000 -0.000000 0.000000 -0.000001 -0.000002 0.000000 -0.000001 -0.000002 0.000000 -0.000001 -0.000002 0.000000 -0.000001 -0.000002 0.346726 -1.487430 -4.124268 -25.088880 37.185346 -3.781095 1.478978 19.821731 10.123274 -12.650883 25.327158 4.952299 15.203251 19.322195 52.691108 1.107372 -10.478474 3.152912 0.000001 -0.000001 0.000001 -4.820981 7.442034 23.943640 2.438100 1.282741 45.786358 -0.000002 -0.000001 -0.000002 -3.856452 3.363159 29.624760 -4.868153 5.900753 40.038938 0.000000 0.000001 -0.000001 -4.536569 2.683460 25.391087 -16.460141 2.887413 52.598942 0.000001 0.000002 -0.000000 -8.472654 5.156728 29.545749 -26.216097 5.062015 45.311260 0.000000 0.000003 -0.000001 0.000000 -0.000000 -0.000000 0.000000 -0.000000 -0.000000 0.000000 -0.000000 -0.000000 0.000000 -0.000000 0.000000 0.000000 -0.000000 0.000000 0.000000 -0.000000 0.000000 0.000000 -0.000000 0.000000 0.000002 0.000001 -0.000001 0.000001 0.000001 -0.000001 0.000002 0.000001 -0.000001 0.000002 0.000001 -0.000001 0.000002 0.000001 -0.000001 0.000002 0.000001 -0.000001 0.000001 0.000001 -0.000001 0.000000 0.000001 0.000000 0.000000 -0.000003 -0.000001 
-8.518669 91.600235 2.087844 -16.429788 -38.819124 -7.746700 -0.000000 -0.000000 0.000001 -23.562378 4.210199 12.580046 17.869482 -12.297184 1.420366 40.335020 -2.595238 -15.482511 0.000000 -0.000001 0.000000 -0.000000 0.000000 -0.000001 13.862194 -17.956741 -12.944250 30.396691 -4.399047 0.410618 -18.241999 -3.187020 13.751590 -0.000001 0.000001 -0.000000 0.000001 0.000000 -0.000001 5.385374 1.759015 -0.282596 10.847841 3.499697 -2.042201 10.847843 3.499693 -2.042200 0.774811 0.463927 1.297419 0.774818 0.463918 1.297452 0.000001 0.000001 0.000000 0.774678 0.463996 1.297409 0.775028 0.463881 1.297432 0.000001 0.000001 -0.000000 0.000001 0.000001 0.000000 -1.740826 10.008576 19.408150 -25.017383 -43.536473 6.212924 12.846380 -17.124748 -10.667724 4.168321 -11.860451 17.064611 8.219170 -14.113699 -30.969611 0.474133 0.318948 -1.755208 -0.000002 0.000000 -0.000000 -5.417384 -8.077336 -35.493904 0.914974 -4.612536 -56.915932 -0.000002 -0.000001 0.000001 -4.610490 -5.387662 -41.067602 -7.308944 -7.527951 -51.510059 -0.000001 0.000002 0.000000 -9.274312 -3.507500 -36.294703 -18.852791 -0.245823 -63.709614 0.000000 0.000001 0.000001 -15.150910 -3.986449 -39.450975 -29.709824 1.117851 -55.269590 -0.000000 0.000001 0.000001 0.000001 -0.000000 0.000000 0.000001 -0.000000 0.000000 0.000001 -0.000000 0.000000 -0.000000 0.000002 0.000000 -0.000000 0.000002 0.000000 -0.000000 0.000002 0.000000 -0.000000 0.000002 0.000000 0.297389 -2.580781 -7.091998 -23.738261 39.060622 -6.685525 4.364420 13.246819 9.366394 -13.734360 25.946265 9.681867 15.330363 18.677456 51.776953 1.113680 -10.529527 3.161807 0.000000 -0.000001 0.000001 -4.513499 7.117063 23.396166 2.472204 1.156845 45.226244 -0.000001 0.000001 0.000000 -3.784257 3.291776 29.055191 -4.775201 5.849415 39.479163 0.000002 -0.000000 -0.000000 -4.553457 2.778218 24.790161 -16.303687 2.957354 52.060808 0.000003 -0.000001 0.000003 -8.526765 5.475821 28.916316 -25.961737 5.208310 44.809459 -0.000002 -0.000000 0.000000 0.000000 -0.000000 -0.000000 0.000000 -0.000000 -0.000000 0.000000 -0.000000 0.000001 0.000000 -0.000000 0.000001 0.000000 -0.000000 0.000001 0.000000 -0.000000 0.000001 0.000000 -0.000000 0.000001 0.000000 0.000001 -0.000000 0.000001 0.000001 -0.000000 0.000000 0.000001 -0.000000 0.000000 0.000001 -0.000000 0.000000 0.000001 -0.000000 0.000000 0.000001 -0.000000 0.000001 0.000001 -0.000000 0.000000 -0.000002 -0.000000 -0.000000 -0.000000 0.000000 
-10.321897 95.579529 2.163698 -15.786746 -39.760481 -7.140408 0.000001 0.000001 0.000001 -20.579589 5.971240 11.182027 9.335506 -18.295092 2.177992 49.490386 -3.848517 -15.730271 0.000004 -0.000004 0.000002 0.000000 -0.000000 -0.000000 8.936186 -15.775563 -13.680756 26.978802 -0.605715 -0.765556 1.609265 -0.341458 13.121625 0.000002 0.000000 0.000000 0.000003 -0.000000 0.000001 5.030152 1.945050 -0.428172 10.148499 3.743876 -2.337036 10.148497 3.743878 -2.337034 1.256803 0.386087 1.344922 1.256797 0.386093 1.344922 -0.000000 0.000003 -0.000000 1.256804 0.386082 1.344923 1.256810 0.386069 1.344926 0.000000 -0.000001 0.000001 -0.000000 0.000003 -0.000000 -3.167070 13.780734 23.119740 -23.400590 -39.203862 8.273940 11.597935 -18.697112 -10.236567 3.804373 -12.751249 18.785464 7.861017 -13.774164 -29.780000 0.475541 0.326906 -1.755938 -0.000000 0.000000 0.000000 -4.887357 -7.660867 -33.619878 1.134311 -4.201859 -55.056089 -0.000001 0.000003 -0.000001 -4.312418 -5.190558 -39.172948 -6.935881 -7.392257 -49.590083 0.000002 0.000002 0.000001 -8.909108 -3.602488 -34.388957 -18.409868 -0.605034 -61.872430 0.000000 -0.000001 -0.000001 -14.741288 -4.488174 -37.566112 -29.023318 0.422708 -53.628135 0.000000 -0.000000 0.000001 0.000001 0.000000 -0.000000 0.000001 0.000000 -0.000000 0.000001 0.000000 -0.000000 0.000001 0.000002 0.000002 0.000001 0.000002 0.000002 0.000001 0.000002 0.000002 0.000001 0.000002 0.000002 0.192150 -3.941852 -9.435534 -23.672017 39.505329 -7.911800 5.318670 8.250313 8.218861 -14.658255 25.772583 15.116307 15.318661 17.912258 50.299446 1.105610 -10.379232 3.141794 -0.000002 0.000002 0.000001 -4.167816 6.715208 22.596281 2.519857 0.971401 44.404204 -0.000003 0.000001 -0.000001 -3.680646 3.190030 28.218295 -4.632753 5.768619 38.614567 0.000002 0.000000 0.000001 -4.511989 2.881121 23.913662 -16.058249 3.063640 51.219674 -0.000000 -0.000001 0.000000 -8.476447 5.852096 28.005394 -25.567466 5.429194 44.035432 0.000003 -0.000000 -0.000000 -0.000000 0.000000 -0.000000 -0.000000 0.000000 -0.000000 -0.000000 0.000000 0.000001 0.000000 0.000000 -0.000002 0.000000 0.000000 -0.000002 0.000000 0.000000 -0.000002 0.000000 0.000000 -0.000002 0.000000 0.000002 -0.000000 0.000000 0.000002 -0.000001 0.000000 0.000002 -0.000000 0.000000 0.000002 -0.000000 0.000000 0.000002 -0.000000 0.000000 0.000002 -0.000000 0.000000 0.000002 -0.000001 -0.000000 -0.000001 -0.000000 0.000001 0.000001 0.000000 
-11.154175 100.684860 2.460592 -14.545612 -40.142586 -5.978976 -0.000001 -0.000001 0.000000 -17.904639 6.884353 8.721031 3.234693 -26.270677 2.482816 54.524970 -6.156977 -19.733424 0.000001 -0.000000 0.000000 0.000001 -0.000000 -0.000002 8.444696 -15.122307 -17.874728 17.219738 1.430948 -1.668647 17.179268 1.090366 25.082176 -0.000003 0.000000 0.000000 0.000000 0.000000 -0.000000 4.972305 2.140478 -0.189475 10.072720 3.936687 -2.636163 10.072724 3.936686 -2.636162 1.634035 0.356639 1.302493 1.634057 0.356636 1.302493 0.000000 0.000001 -0.000000 1.634295 0.356633 1.302466 1.634052 0.356806 1.302436 0.000001 -0.000001 -0.000001 0.000000 0.000001 -0.000000 -4.630811 17.333260 25.050947 -23.119693 -33.400711 9.089592 8.009907 -22.185213 -9.662342 2.717273 -12.834183 22.484563 7.425895 -13.412636 -28.417443 0.478832 0.351147 -1.760438 -0.000003 -0.000000 -0.000000 -4.321923 -7.155531 -31.550334 1.362590 -3.736322 -52.987088 -0.000001 -0.000000 -0.000002 -3.991758 -4.979444 -37.058472 -6.521196 -7.224852 -47.427215 -0.000001 -0.000002 -0.000002 -8.489435 -3.717035 -32.234982 -17.892744 -0.995526 -59.782091 0.000000 -0.000001 -0.000001 -14.240903 -5.062213 -35.418656 -28.221362 -0.341347 -51.757691 -0.000000 -0.000000 -0.000002 -0.000000 0.000003 0.000001 -0.000000 0.000003 0.000001 -0.000000 0.000003 0.000001 -0.000001 0.000000 -0.000001 -0.000001 0.000000 -0.000001 -0.000001 0.000000 -0.000001 -0.000001 0.000000 -0.000001 0.029637 -5.466244 -10.974453 -24.339179 38.010279 -8.435566 3.863768 5.372709 6.835060 -15.746118 25.063953 19.091183 15.169147 17.049752 48.322294 1.083941 -10.040787 3.094675 0.000001 0.000001 -0.000001 -3.798766 6.243733 21.580722 2.576837 0.733408 43.353670 -0.000001 0.000002 0.000000 -3.551395 3.061906 27.147866 -4.445926 5.658434 37.469550 -0.000003 -0.000001 0.000002 -4.415747 2.990829 22.793137 -15.728251 3.199841 50.096248 0.000002 -0.000001 0.000001 -8.321961 6.276070 26.839754 -25.041091 5.713026 43.009530 0.000002 0.000002 -0.000001 0.000000 -0.000001 0.000002 0.000000 -0.000001 0.000002 0.000000 -0.000001 0.000002 0.000000 0.000000 0.000000 0.000000 0.000000 0.000000 0.000000 0.000000 0.000000 0.000000 0.000000 0.000000 0.000001 0.000000 -0.000000 0.000001 0.000000 -0.000000 0.000001 0.000000 -0.000000 0.000001 0.000000 -0.000000 0.000001 0.000000 -0.000000 0.000001 0.000000 -0.000000 0.000001 0.000000 -0.000000 0.000000 -0.000001 0.000000 -0.000001 -0.000001 -0.000000 
